Coordinates
version=1
nRows=8
nColumns=36
inDegrees=yes

Units are S.I. units (second, meters, Newtons, ...)
If the header above contains a line with 'inDegrees', this indicates whether rotational values are in degrees (yes) or radians (no).

endheader
time	pelvis_tilt	pelvis_list	pelvis_rotation	pelvis_tx	pelvis_ty	pelvis_tz	hip_flexion_r	hip_adduction_r	hip_rotation_r	knee_angle_r	knee_angle_r_beta	ankle_angle_r	subtalar_angle_r	mtp_angle_r	hip_flexion_l	hip_adduction_l	hip_rotation_l	knee_angle_l	knee_angle_l_beta	ankle_angle_l	subtalar_angle_l	mtp_angle_l	lumbar_extension	lumbar_bending	lumbar_rotation	arm_flex_r	arm_add_r	arm_rot_r	elbow_flex_r	pro_sup_r	arm_flex_l	arm_add_l	arm_rot_l	elbow_flex_l	pro_sup_l
      6.55000000	     -9.36751891	     -5.67648710	      0.84848627	      1.38807115	      0.82345261	     -0.07233350	     42.22717348	     13.00972754	     -3.87302399	     64.70498023	      1.12931495	     34.96727063	     -1.07174234	     -7.49999987	     83.05966692	     -6.53297575	     17.78425028	     45.87425432	      0.80065678	      7.03751140	      2.28278650	     -7.49999987	    -17.87763480	     16.09625511	      3.63417142	     65.85391937	     -3.23167305	     77.55766917	    121.80138637	     93.72632166	     67.01061859	     -4.03229117	     63.42021147	    113.80295167	    108.72141829
      6.56666670	     -8.71611128	     -4.69098459	      1.35760452	      1.38933478	      0.83746558	     -0.07248391	     40.12257703	     12.08977406	     -2.84502612	     62.49472424	      1.09073870	     33.82023535	     -1.43206801	     -7.49999987	     81.21356552	     -6.02949518	     16.56189869	     45.28122407	      0.79030645	      6.64327673	      1.57590750	     -7.49999987	    -17.73857248	     14.70776008	      3.02841439	     65.44075578	     -2.89931398	     77.41050982	    121.89500621	     90.79458875	     66.83723777	     -3.94404510	     63.96138869	    113.55431355	    104.91994100
      6.58333330	     -6.80608075	     -3.80128835	      2.02734713	      1.38955565	      0.85320457	     -0.07305759	     36.20651226	     11.33483698	     -1.68450248	     59.37886534	      1.03635671	     32.14303767	     -2.54866838	     -7.49999987	     77.94152572	     -5.53142348	     15.21515700	     44.22774726	      0.77191981	      6.49641238	      1.26656804	     -7.49999987	    -19.33216826	     13.61623246	      2.09638704	     65.09726382	     -2.40809339	     76.57215588	    120.83792415	     94.00291993	     67.34251051	     -4.05756752	     63.92668322	    113.52106246	    108.58528354
      6.60000000	     -5.73514108	     -2.62113180	      2.46346275	      1.39530020	      0.86907334	     -0.07463164	     32.95582718	     10.19908773	     -0.54086510	     56.12934452	      0.97964187	     30.61659380	     -3.35690409	     -7.49999987	     75.18133848	     -4.76903933	     13.74759275	     43.16576915	      0.75338480	      6.48656546	      0.89666792	     -7.49999987	    -19.78683394	     12.02172424	      0.96129860	     64.31316955	     -1.51281273	     76.50291672	    120.49056329	     92.27829597	     67.04478679	     -4.22366558	     63.84072564	    113.42844652	    105.61380550
      6.61666670	     -4.91745550	     -1.62511486	      2.65545277	      1.39537084	      0.87821201	     -0.07484528	     30.45536555	      9.16780483	      0.35735783	     53.54681244	      0.93456818	     29.02932967	     -3.90413550	     -7.49999987	     73.38182603	     -4.22477303	     12.42957200	     42.81104441	      0.74719368	      6.52521627	      0.83838483	     -7.49999987	    -20.01060342	     10.63811297	      0.31384812	     63.92528543	     -0.75908821	     75.85671873	    120.13788363	     92.85191872	     67.30290128	     -4.10604101	     63.40278238	    113.57360804	    106.08738070
      6.63333330	     -4.28861589	     -0.82810168	      2.92105679	      1.39644140	      0.88530440	     -0.07439701	     28.08253337	      8.33456829	      1.05551686	     50.77345310	      0.88616393	     27.79848775	     -4.08428742	     -7.49999987	     72.12146904	     -3.65797295	     11.47186984	     42.68139902	      0.74493094	      6.65479190	      0.57633079	     -7.49999987	    -19.82652508	      9.32331899	     -0.77968846	     63.47966301	     -0.06099467	     74.79011134	    119.97012731	     92.19749560	     67.82382757	     -4.38695386	     63.58831718	    113.77831930	    104.98897794
      6.65000000	     -3.71910871	      0.13695374	      3.09929397	      1.39195189	      0.90061588	     -0.07710154	     26.03885558	      7.22116286	      1.79041416	     48.10725269	      0.83962995	     26.08592255	     -4.69754359	     -7.49999987	     70.62987883	     -2.97497635	     10.22396821	     42.05922148	      0.73407190	      6.56061190	      0.33213952	     -7.49999987	    -20.29485861	      8.19030904	     -1.29273053	     64.13245671	      0.19377622	     74.41406515	    120.11686404	     94.45943606	     68.23527662	     -4.51397616	     64.06516547	    114.04454555	    106.97957589
      6.66666670	     -3.17790673	      1.05660913	      3.18255930	      1.39858429	      0.90992294	     -0.07374517	     23.76316112	      6.29557399	      2.58963722	     45.29420466	      0.79053300	     24.61257374	     -4.82309634	     -7.49999987	     69.23133632	     -2.52978123	      9.00932256	     41.72585011	      0.72825347	      6.69740936	      0.12525932	     -7.49999987	    -20.26195804	      6.86381713	     -1.70315693	     63.47478344	      0.65829721	     73.17362637	    119.78966237	     94.42636435	     68.20618132	     -4.74226658	     64.33409820	    114.40264388	    106.90699246
